<svg width="119" height="118" viewBox="0 0 119 118" fill="none" xmlns="http://www.w3.org/2000/svg">
<path d="M94.9186 88.6372C93.6413 88.6372 92.4347 89.1967 91.5517 90.1196C83.2815 98.7646 71.6306 104.149 58.7222 104.149C33.6338 104.149 13.2956 83.8105 13.2956 58.7221C13.2956 33.6337 33.6338 13.2956 58.7222 13.2956C73.5233 13.2956 86.6711 20.3743 94.9648 31.331C95.8512 32.502 97.2126 33.2389 98.6812 33.2389H104.583C107.85 33.2389 109.962 29.8316 108.199 27.0808C97.7617 10.7938 79.5025 0 58.7222 0C26.2909 0 0 26.2908 0 58.7221C0 91.1535 26.2909 117.444 58.7222 117.444C77.4386 117.444 94.1099 108.688 104.863 95.0485C106.99 92.3511 104.917 88.6372 101.482 88.6372H94.9186Z" fill="#1563FF"/>
<path d="M105.5 48L110.273 56.727L119 61.5L110.273 66.273L105.5 75L100.727 66.273L92 61.5L100.727 56.727L105.5 48Z" fill="#FFB700"/>
<path d="M85.2495 47L62 59.9738V86.7785L85.2495 73.4143V47Z" fill="#81BEFF"/>
<path d="M59.2494 86.5827V59.9738L36 47V73.2186L59.2494 86.5827Z" fill="#449EFF"/>
<path d="M84.2257 44.5234L60.6992 31L37 44.6228L60.5239 57.7497L84.2257 44.5234Z" fill="#1563FF"/>
</svg>